<?xml version="1.0" encoding="UTF-8"?>
<svg version="1.1" xmlns="http://www.w3.org/2000/svg" width="480" height="480">
<path d="M0 0 C5.3039247 4.40112901 8.04704125 10.10174626 11.16210938 16.11328125 C13.08942539 19.60369609 14.25785785 21.60800195 17.83984375 23.5 C22.97805332 22.68703235 25.35434865 19.08096214 28.625 15.25 C29.92702449 13.77368876 31.23162961 12.29964866 32.5390625 10.828125 C33.39298584 9.8366748 33.39298584 9.8366748 34.26416016 8.82519531 C36.06853733 6.92793459 37.78780992 5.40333245 40 4 C43.05650852 4.12475545 45.12516408 4.30526525 47.5559082 6.2355957 C49.33951708 8.41482501 50.10684835 10.45056992 51.04296875 13.10546875 C51.39423828 14.08837891 51.74550781 15.07128906 52.10742188 16.08398438 C52.46384766 17.10814453 52.82027344 18.13230469 53.1875 19.1875 C53.73954102 20.74114258 53.73954102 20.74114258 54.30273438 22.32617188 C55.20947156 24.88152212 56.10821315 27.43940192 57 30 C59.66199085 30.80666389 61.27549935 31.22741227 64 31 C67.18630922 29.27973798 69.82526065 26.98024239 72.5625 24.625 C81.80730686 16.81064513 81.80730686 16.81064513 87 17 C89.765625 17.96875 89.765625 17.96875 92 20 C92.85729603 22.63226105 93.37236668 24.79984343 93.75 27.5 C93.92366089 28.56444336 93.92366089 28.56444336 94.10083008 29.65039062 C95.00728432 35.40491301 95.64272846 41.1850977 96 47 C102.73521359 48.80148858 106.52144332 46.76900868 112.5 43.5625 C122.51656912 38.23773616 122.51656912 38.23773616 129 39 C130.875 40.125 130.875 40.125 132 42 C133.58037455 48.64402364 133.01640678 55.51986125 132.87304688 62.296875 C132.86208984 63.2559375 132.85113281 64.215 132.83984375 65.203125 C132.82300537 66.07614258 132.80616699 66.94916016 132.78881836 67.84863281 C132.79129283 70.21439 132.79129283 70.21439 135 72 C141.3149174 71.57672986 147.19802347 70.00841666 153.26367188 68.28515625 C157.18876547 67.23493871 160.09836869 66.7210122 164 68 C166.26918694 69.62084782 166.89484137 70.62091753 167.64257812 73.31640625 C168.02404174 76.18051013 167.7515489 77.92602283 166.96875 80.6875 C166.73542969 81.55117187 166.50210937 82.41484375 166.26171875 83.3046875 C165.75390625 85.1015625 165.24609375 86.8984375 164.73828125 88.6953125 C164.50496094 89.55898437 164.27164062 90.42265625 164.03125 91.3125 C163.69963867 92.48232422 163.69963867 92.48232422 163.36132812 93.67578125 C162.9398141 96.38714175 163.27272538 98.3673112 164 101 C165.03898924 102.26792901 165.03898924 102.26792901 167.32910156 102.06591797 C168.3394043 102.04158691 169.34970703 102.01725586 170.390625 101.9921875 C171.49277344 101.97542969 172.59492188 101.95867187 173.73046875 101.94140625 C176.06136492 101.89742708 178.39212506 101.84545121 180.72265625 101.78515625 C181.82996094 101.77097656 182.93726563 101.75679688 184.078125 101.7421875 C185.09293945 101.7201123 186.10775391 101.69803711 187.15332031 101.67529297 C190.75764209 102.08642058 193.41906209 103.41906209 196 106 C196.87120359 113.43949131 193.54492304 118.57069577 190.11132812 124.97265625 C187.43701475 130.2202066 186.46045218 133.24410264 188 139 C189.19496094 139.12117187 190.38992188 139.24234375 191.62109375 139.3671875 C213.73937535 141.66522096 213.73937535 141.66522096 217.125 145.25 C218.26018828 148.81773458 218.04684361 150.37403766 217 154 C214.46159268 157.77711255 211.44930285 161.18895588 208.484375 164.63476562 C205.1982527 168.43028499 205.1982527 168.43028499 203.82519531 173.09423828 C204.07958888 175.23362352 204.07958888 175.23362352 205 178 C205.65073486 178.2266333 206.30146973 178.4532666 206.97192383 178.68676758 C209.92197907 179.7198004 212.86720503 180.7659764 215.8125 181.8125 C216.83666016 182.16892578 217.86082031 182.52535156 218.91601562 182.89257812 C219.89892578 183.24384766 220.88183594 183.59511719 221.89453125 183.95703125 C222.80050049 184.27647705 223.70646973 184.59592285 224.63989258 184.92504883 C228.19131463 186.54260456 229.62490706 188.10394466 231.125 191.6875 C230.92491394 196.98978059 227.72491585 199.45738019 224 203 C222.94572995 203.92034108 221.88684146 204.83540938 220.82421875 205.74609375 C220.00280396 206.46116089 220.00280396 206.46116089 219.16479492 207.19067383 C218.0680269 208.13560888 216.95494584 209.06198102 215.82543945 209.9675293 C213.23209512 212.18694003 212.07234227 213.54102175 211.53515625 216.94921875 C213.90136513 221.87724311 218.25409869 223.6443454 222.9375 226.1875 C224.78319546 227.21685469 226.62580082 228.25177525 228.46484375 229.29296875 C229.285896 229.7418042 230.10694824 230.19063965 230.95288086 230.65307617 C233 232 233 232 235 235 C235.4375 237.875 235.4375 237.875 235 241 C230.59887099 246.3039247 224.89825374 249.04704125 218.88671875 252.16210938 C215.39630391 254.08942539 213.39199805 255.25785785 211.5 258.83984375 C212.31296765 263.97805332 215.91903786 266.35434865 219.75 269.625 C221.22631124 270.92702449 222.70035134 272.23162961 224.171875 273.5390625 C224.8328418 274.10834473 225.49380859 274.67762695 226.17480469 275.26416016 C228.07206541 277.06853733 229.59666755 278.78780992 231 281 C230.87524455 284.05650852 230.69473475 286.12516408 228.7644043 288.5559082 C226.58517499 290.33951708 224.54943008 291.10684835 221.89453125 292.04296875 C220.91162109 292.39423828 219.92871094 292.74550781 218.91601562 293.10742188 C217.89185547 293.46384766 216.86769531 293.82027344 215.8125 294.1875 C214.25885742 294.73954102 214.25885742 294.73954102 212.67382812 295.30273438 C210.11847788 296.20947156 207.56059808 297.10821315 205 298 C204.19333611 300.66199085 203.77258773 302.27549935 204 305 C205.72026202 308.18630922 208.01975761 310.82526065 210.375 313.5625 C218.18935487 322.80730686 218.18935487 322.80730686 218 328 C217.03125 330.765625 217.03125 330.765625 215 333 C212.36773895 333.85729603 210.20015657 334.37236668 207.5 334.75 C206.43555664 334.92366089 206.43555664 334.92366089 205.34960938 335.10083008 C199.59508699 336.00728432 193.8149023 336.64272846 188 337 C186.19851142 343.73521359 188.23099132 347.52144332 191.4375 353.5 C196.76226384 363.51656912 196.76226384 363.51656912 196 370 C194.875 371.875 194.875 371.875 193 373 C186.35597636 374.58037455 179.48013875 374.01640678 172.703125 373.87304688 C171.7440625 373.86208984 170.785 373.85113281 169.796875 373.83984375 C168.48734863 373.81458618 168.48734863 373.81458618 167.15136719 373.78881836 C164.78561 373.79129283 164.78561 373.79129283 163 376 C163.42327014 382.3149174 164.99158334 388.19802347 166.71484375 394.26367188 C167.76506129 398.18876547 168.2789878 401.09836869 167 405 C165.37915218 407.26918694 164.37908247 407.89484137 161.68359375 408.64257812 C158.81948987 409.02404174 157.07397717 408.7515489 154.3125 407.96875 C153.44882812 407.73542969 152.58515625 407.50210937 151.6953125 407.26171875 C149.8984375 406.75390625 148.1015625 406.24609375 146.3046875 405.73828125 C145.44101562 405.50496094 144.57734375 405.27164062 143.6875 405.03125 C142.90761719 404.81017578 142.12773437 404.58910156 141.32421875 404.36132812 C138.61285825 403.9398141 136.6326888 404.27272538 134 405 C132.73207099 406.03898924 132.73207099 406.03898924 132.93408203 408.32910156 C132.95841309 409.3394043 132.98274414 410.34970703 133.0078125 411.390625 C133.02457031 412.49277344 133.04132813 413.59492188 133.05859375 414.73046875 C133.10257292 417.06136492 133.15454879 419.39212506 133.21484375 421.72265625 C133.22902344 422.82996094 133.24320312 423.93726563 133.2578125 425.078125 C133.2798877 426.09293945 133.30196289 427.10775391 133.32470703 428.15332031 C132.91357942 431.75764209 131.58093791 434.41906209 129 437 C121.56050869 437.87120359 116.42930423 434.54492304 110.02734375 431.11132812 C104.7797934 428.43701475 101.75589736 427.46045218 96 429 C95.87882812 430.19496094 95.75765625 431.38992188 95.6328125 432.62109375 C93.33477904 454.73937535 93.33477904 454.73937535 89.75 458.125 C86.18226542 459.26018828 84.62596234 459.04684361 81 458 C77.22288745 455.46159268 73.81104412 452.44930285 70.36523438 449.484375 C66.56971501 446.1982527 66.56971501 446.1982527 61.90576172 444.82519531 C59.76637648 445.07958888 59.76637648 445.07958888 57 446 C56.7733667 446.65073486 56.5467334 447.30146973 56.31323242 447.97192383 C55.2801996 450.92197907 54.2340236 453.86720503 53.1875 456.8125 C52.83107422 457.83666016 52.47464844 458.86082031 52.10742188 459.91601562 C51.58051758 461.39038086 51.58051758 461.39038086 51.04296875 462.89453125 C50.72352295 463.80050049 50.40407715 464.70646973 50.07495117 465.63989258 C48.45739544 469.19131463 46.89605534 470.62490706 43.3125 472.125 C38.01021941 471.92491394 35.54261981 468.72491585 32 465 C31.07965892 463.94572995 30.16459062 462.88684146 29.25390625 461.82421875 C28.77719482 461.27660889 28.3004834 460.72899902 27.80932617 460.16479492 C26.86439112 459.0680269 25.93801898 457.95494584 25.0324707 456.82543945 C22.81305997 454.23209512 21.45897825 453.07234227 18.05078125 452.53515625 C13.12275689 454.90136513 11.3556546 459.25409869 8.8125 463.9375 C7.78314531 465.78319546 6.74822475 467.62580082 5.70703125 469.46484375 C5.2581958 470.285896 4.80936035 471.10694824 4.34692383 471.95288086 C3 474 3 474 0 476 C-2.875 476.4375 -2.875 476.4375 -6 476 C-11.3039247 471.59887099 -14.04704125 465.89825374 -17.16210938 459.88671875 C-19.08942539 456.39630391 -20.25785785 454.39199805 -23.83984375 452.5 C-28.97805332 453.31296765 -31.35434865 456.91903786 -34.625 460.75 C-35.92702449 462.22631124 -37.23162961 463.70035134 -38.5390625 465.171875 C-39.10834473 465.8328418 -39.67762695 466.49380859 -40.26416016 467.17480469 C-42.06853733 469.07206541 -43.78780992 470.59666755 -46 472 C-49.05650852 471.87524455 -51.12516408 471.69473475 -53.5559082 469.7644043 C-55.33951708 467.58517499 -56.10684835 465.54943008 -57.04296875 462.89453125 C-57.39423828 461.91162109 -57.74550781 460.92871094 -58.10742188 459.91601562 C-58.46384766 458.89185547 -58.82027344 457.86769531 -59.1875 456.8125 C-59.55552734 455.77673828 -59.92355469 454.74097656 -60.30273438 453.67382812 C-61.20947156 451.11847788 -62.10821315 448.56059808 -63 446 C-65.66199085 445.19333611 -67.27549935 444.77258773 -70 445 C-73.18630922 446.72026202 -75.82526065 449.01975761 -78.5625 451.375 C-87.80730686 459.18935487 -87.80730686 459.18935487 -93 459 C-95.765625 458.03125 -95.765625 458.03125 -98 456 C-98.85729603 453.36773895 -99.37236668 451.20015657 -99.75 448.5 C-99.86577393 447.79037109 -99.98154785 447.08074219 -100.10083008 446.34960938 C-101.00728432 440.59508699 -101.64272846 434.8149023 -102 429 C-108.73521359 427.19851142 -112.52144332 429.23099132 -118.5 432.4375 C-128.51656912 437.76226384 -128.51656912 437.76226384 -135 437 C-136.875 435.875 -136.875 435.875 -138 434 C-139.58037455 427.35597636 -139.01640678 420.48013875 -138.87304688 413.703125 C-138.85661133 412.26453125 -138.85661133 412.26453125 -138.83984375 410.796875 C-138.82300537 409.92385742 -138.80616699 409.05083984 -138.78881836 408.15136719 C-138.79129283 405.78561 -138.79129283 405.78561 -141 404 C-147.3149174 404.42327014 -153.19802347 405.99158334 -159.26367188 407.71484375 C-163.18876547 408.76506129 -166.09836869 409.2789878 -170 408 C-172.26918694 406.37915218 -172.89484137 405.37908247 -173.64257812 402.68359375 C-174.02404174 399.81948987 -173.7515489 398.07397717 -172.96875 395.3125 C-172.73542969 394.44882812 -172.50210938 393.58515625 -172.26171875 392.6953125 C-171.75390625 390.8984375 -171.24609375 389.1015625 -170.73828125 387.3046875 C-170.50496094 386.44101562 -170.27164063 385.57734375 -170.03125 384.6875 C-169.81017578 383.90761719 -169.58910156 383.12773437 -169.36132812 382.32421875 C-168.9398141 379.61285825 -169.27272538 377.6326888 -170 375 C-171.03898924 373.73207099 -171.03898924 373.73207099 -173.32910156 373.93408203 C-174.3394043 373.95841309 -175.34970703 373.98274414 -176.390625 374.0078125 C-177.49277344 374.02457031 -178.59492188 374.04132813 -179.73046875 374.05859375 C-182.06136492 374.10257292 -184.39212506 374.15454879 -186.72265625 374.21484375 C-187.82996094 374.22902344 -188.93726563 374.24320312 -190.078125 374.2578125 C-191.09293945 374.2798877 -192.10775391 374.30196289 -193.15332031 374.32470703 C-196.75764209 373.91357942 -199.41906209 372.58093791 -202 370 C-202.87120359 362.56050869 -199.54492304 357.42930423 -196.11132812 351.02734375 C-193.43701475 345.7797934 -192.46045218 342.75589736 -194 337 C-195.19496094 336.87882812 -196.38992187 336.75765625 -197.62109375 336.6328125 C-219.73937535 334.33477904 -219.73937535 334.33477904 -223.125 330.75 C-224.26018828 327.18226542 -224.04684361 325.62596234 -223 322 C-220.46159268 318.22288745 -217.44930285 314.81104412 -214.484375 311.36523438 C-211.1982527 307.56971501 -211.1982527 307.56971501 -209.82519531 302.90576172 C-210.07958888 300.76637648 -210.07958888 300.76637648 -211 298 C-211.97610229 297.66005005 -211.97610229 297.66005005 -212.97192383 297.31323242 C-215.92197907 296.2801996 -218.86720503 295.2340236 -221.8125 294.1875 C-222.83666016 293.83107422 -223.86082031 293.47464844 -224.91601562 293.10742188 C-226.39038086 292.58051758 -226.39038086 292.58051758 -227.89453125 292.04296875 C-228.80050049 291.72352295 -229.70646973 291.40407715 -230.63989258 291.07495117 C-234.19131463 289.45739544 -235.62490706 287.89605534 -237.125 284.3125 C-236.92491394 279.01021941 -233.72491585 276.54261981 -230 273 C-228.94572995 272.07965892 -227.88684146 271.16459062 -226.82421875 270.25390625 C-226.27660889 269.77719482 -225.72899902 269.3004834 -225.16479492 268.80932617 C-224.0680269 267.86439112 -222.95494584 266.93801898 -221.82543945 266.0324707 C-219.23209512 263.81305997 -218.07234227 262.45897825 -217.53515625 259.05078125 C-219.90136513 254.12275689 -224.25409869 252.3556546 -228.9375 249.8125 C-230.78319546 248.78314531 -232.62580082 247.74822475 -234.46484375 246.70703125 C-235.285896 246.2581958 -236.10694824 245.80936035 -236.95288086 245.34692383 C-239 244 -239 244 -241 241 C-241.4375 238.125 -241.4375 238.125 -241 235 C-236.59887099 229.6960753 -230.89825374 226.95295875 -224.88671875 223.83789062 C-221.39630391 221.91057461 -219.39199805 220.74214215 -217.5 217.16015625 C-218.31296765 212.02194668 -221.91903786 209.64565135 -225.75 206.375 C-227.22631124 205.07297551 -228.70035134 203.76837039 -230.171875 202.4609375 C-231.1633252 201.60701416 -231.1633252 201.60701416 -232.17480469 200.73583984 C-234.07206541 198.93146267 -235.59666755 197.21219008 -237 195 C-236.87524455 191.94349148 -236.69473475 189.87483592 -234.7644043 187.4440918 C-232.58517499 185.66048292 -230.54943008 184.89315165 -227.89453125 183.95703125 C-226.91162109 183.60576172 -225.92871094 183.25449219 -224.91601562 182.89257812 C-223.89185547 182.53615234 -222.86769531 182.17972656 -221.8125 181.8125 C-220.77673828 181.44447266 -219.74097656 181.07644531 -218.67382812 180.69726562 C-216.11847788 179.79052844 -213.56059808 178.89178685 -211 178 C-210.19333611 175.33800915 -209.77258773 173.72450065 -210 171 C-211.72026202 167.81369078 -214.01975761 165.17473935 -216.375 162.4375 C-224.18935487 153.19269314 -224.18935487 153.19269314 -224 148 C-223.03125 145.234375 -223.03125 145.234375 -221 143 C-218.36773895 142.14270397 -216.20015657 141.62763332 -213.5 141.25 C-212.79037109 141.13422607 -212.08074219 141.01845215 -211.34960938 140.89916992 C-205.59508699 139.99271568 -199.8149023 139.35727154 -194 139 C-192.19851142 132.26478641 -194.23099132 128.47855668 -197.4375 122.5 C-202.76226384 112.48343088 -202.76226384 112.48343088 -202 106 C-200.875 104.125 -200.875 104.125 -199 103 C-192.35597636 101.41962545 -185.48013875 101.98359322 -178.703125 102.12695312 C-177.7440625 102.13791016 -176.785 102.14886719 -175.796875 102.16015625 C-174.92385742 102.17699463 -174.05083984 102.19383301 -173.15136719 102.21118164 C-170.78561 102.20870717 -170.78561 102.20870717 -169 100 C-169.42327014 93.6850826 -170.99158334 87.80197653 -172.71484375 81.73632812 C-173.76506129 77.81123453 -174.2789878 74.90163131 -173 71 C-171.37915218 68.73081306 -170.37908247 68.10515863 -167.68359375 67.35742188 C-164.81948987 66.97595826 -163.07397717 67.2484511 -160.3125 68.03125 C-159.01699219 68.38123047 -159.01699219 68.38123047 -157.6953125 68.73828125 C-155.8984375 69.24609375 -154.1015625 69.75390625 -152.3046875 70.26171875 C-151.00917969 70.61169922 -151.00917969 70.61169922 -149.6875 70.96875 C-148.90761719 71.18982422 -148.12773437 71.41089844 -147.32421875 71.63867188 C-144.61285825 72.0601859 -142.6326888 71.72727462 -140 71 C-138.73207099 69.96101076 -138.73207099 69.96101076 -138.93408203 67.67089844 C-138.95841309 66.6605957 -138.98274414 65.65029297 -139.0078125 64.609375 C-139.02457031 63.50722656 -139.04132813 62.40507813 -139.05859375 61.26953125 C-139.10257292 58.93863508 -139.15454879 56.60787494 -139.21484375 54.27734375 C-139.22902344 53.17003906 -139.24320312 52.06273437 -139.2578125 50.921875 C-139.2798877 49.90706055 -139.30196289 48.89224609 -139.32470703 47.84667969 C-138.91357942 44.24235791 -137.58093791 41.58093791 -135 39 C-127.56050869 38.12879641 -122.42930423 41.45507696 -116.02734375 44.88867188 C-110.7797934 47.56298525 -107.75589736 48.53954782 -102 47 C-101.87882813 45.80503906 -101.75765625 44.61007813 -101.6328125 43.37890625 C-99.33477904 21.26062465 -99.33477904 21.26062465 -95.75 17.875 C-92.18226542 16.73981172 -90.62596234 16.95315639 -87 18 C-83.22288745 20.53840732 -79.81104412 23.55069715 -76.36523438 26.515625 C-72.56971501 29.8017473 -72.56971501 29.8017473 -67.90576172 31.17480469 C-65.76637648 30.92041112 -65.76637648 30.92041112 -63 30 C-62.7733667 29.34926514 -62.5467334 28.69853027 -62.31323242 28.02807617 C-61.2801996 25.07802093 -60.2340236 22.13279497 -59.1875 19.1875 C-58.83107422 18.16333984 -58.47464844 17.13917969 -58.10742188 16.08398438 C-57.75615234 15.10107422 -57.40488281 14.11816406 -57.04296875 13.10546875 C-56.72352295 12.19949951 -56.40407715 11.29353027 -56.07495117 10.36010742 C-54.45739544 6.80868537 -52.89605534 5.37509294 -49.3125 3.875 C-44.01021941 4.07508606 -41.54261981 7.27508415 -38 11 C-37.07965892 12.05427005 -36.16459062 13.11315854 -35.25390625 14.17578125 C-34.53883911 14.99719604 -34.53883911 14.99719604 -33.80932617 15.83520508 C-32.86439112 16.9319731 -31.93801898 18.04505416 -31.0324707 19.17456055 C-28.81305997 21.76790488 -27.45897825 22.92765773 -24.05078125 23.46484375 C-19.12275689 21.09863487 -17.3556546 16.74590131 -14.8125 12.0625 C-13.78314531 10.21680454 -12.74822475 8.37419918 -11.70703125 6.53515625 C-11.2581958 5.714104 -10.80936035 4.89305176 -10.34692383 4.04711914 C-7.60323878 -0.12286439 -4.7040516 -0.65856722 0 0 Z M-14.9375 50.6875 C-16.34391381 55.07220188 -16.34301793 58.58838957 -15 63 C-12.38684375 66.3194147 -9.88609591 68.40238279 -6 70 C-1.21220161 70.33403245 2.15021351 69.66898085 5.9375 66.6875 C9.57718821 61.94487596 10.63440578 59.13258917 10 53 C7.74794145 48.66270205 5.5613976 45.86602629 1 44 C-6.214564 43.19838178 -10.50349821 44.53711043 -14.9375 50.6875 Z M-126.8125 115.625 C-129.03072004 117.50038648 -129.03072004 117.50038648 -130 120 C-129.01639118 120.00238835 -128.03278236 120.00477671 -127.01936722 120.00723743 C-103.05601491 120.06610285 -79.09276257 120.14202917 -55.12952042 120.23571491 C-43.54094606 120.28062856 -31.95240212 120.32005346 -20.36376953 120.34643555 C-10.25992933 120.36945149 -0.15618578 120.40288971 9.94757771 120.44870156 C15.29454167 120.47258523 20.64141018 120.49134582 25.98842621 120.49761391 C31.02813875 120.50368673 36.06760725 120.52376572 41.10722923 120.55427551 C42.95016214 120.56302061 44.79312699 120.56678569 46.63607979 120.56500816 C64.86633975 120.55298393 80.30703595 123.57998788 95 135 C95.763125 135.57363281 96.52625 136.14726562 97.3125 136.73828125 C108.23781617 145.59613307 115.78105271 159.13666877 118 173 C119.10478816 189.37259837 115.70548832 203.59949221 104.93359375 216.46875 C99.54677467 222.09648228 93.4089627 226.60357138 87 231 C88.10214844 232.07121094 88.10214844 232.07121094 89.2265625 233.1640625 C99.53663762 243.70647734 106.10860967 255.88590789 110.0625 270 C111.99836481 276.60138 114.26736057 280.78495619 120.2578125 284.33984375 C126.27173944 287.13943043 131.57405645 287.73433771 138 286 C143.21706554 283.29485491 146.80011569 279.88408555 149.07421875 274.41796875 C150.23220076 270.1427187 150.41751986 266.09701802 150.5625 261.6875 C150.8777439 253.1222561 150.8777439 253.1222561 152 252 C153.34015221 251.84417697 154.68758903 251.74955858 156.03515625 251.68359375 C157.24848633 251.62075195 157.24848633 251.62075195 158.48632812 251.55664062 C159.33646484 251.51732422 160.18660156 251.47800781 161.0625 251.4375 C161.91650391 251.39431641 162.77050781 251.35113281 163.65039062 251.30664062 C165.76672037 251.20023298 167.88333813 251.09958269 170 251 C170.92196643 248.23410072 171.12853388 246.57197625 171.1328125 243.71875 C171.13547119 242.88166504 171.13812988 242.04458008 171.14086914 241.18212891 C171.11962063 237.59080362 171.0815874 234.00010681 171.02392578 230.40917969 C171.00418298 228.42120056 171.03961169 226.43275496 171.08984375 224.4453125 C171.06294856 221.67126541 170.87281506 219.62756867 170 217 C163.65910807 211.05287191 154.53629112 207.72409851 146.73242188 204.14453125 C137.27988388 199.61613625 137.27988388 199.61613625 135 194 C132.94411027 184.85479868 137.81536332 177.42692894 142.0625 169.6875 C143.08140774 167.81391556 144.09364056 165.93780547 145.08921814 164.05171204 C145.98704555 162.35275835 146.90710971 160.66561062 147.82836914 158.97924805 C149.13448766 155.6580219 149.1604398 154.32472994 148 151 C146.54362286 148.51592593 145.06729975 146.17572465 143.4375 143.8125 C142.98640869 143.14903564 142.53531738 142.48557129 142.07055664 141.80200195 C135.74116642 132.59002978 128.60988915 124.17700394 121 116 C120.34902344 115.28328125 119.69804687 114.5665625 119.02734375 113.828125 C107.88575313 102.06397922 94.14028306 92.77529021 80 85 C79.39961914 84.66162109 78.79923828 84.32324219 78.18066406 83.97460938 C69.67425105 79.22409789 60.91784155 75.73302408 51.6875 72.625 C50.69758057 72.29105225 49.70766113 71.95710449 48.68774414 71.61303711 C46.75328833 70.9856504 44.80779381 70.39123804 42.85253906 69.83203125 C40 69 40 69 37.24902344 67.91796875 C34.16473466 66.92196592 32.21906676 66.52291391 29 67 C24.27548522 70.2911826 20.64820853 74.43330547 16.875 78.75 C4.91285875 92.17388697 4.91285875 92.17388697 -1.76513672 93.18847656 C-8.40879782 92.62818528 -12.3912628 90.32400056 -16.86328125 85.5546875 C-17.38133835 85.02481232 -17.89939545 84.49493713 -18.43315125 83.94900513 C-20.07201615 82.26920149 -21.69292742 80.57339386 -23.3125 78.875 C-24.95252629 77.17229296 -26.59610499 75.47329566 -28.2454071 73.77957153 C-29.26755935 72.72816853 -30.283894 71.67107241 -31.29377747 70.60787964 C-32.49140908 69.36762932 -33.74145275 68.17838922 -35 67 C-67.83480886 67 -104.51577978 93.68095198 -126.8125 115.625 Z M-185 173 C-187.88516342 176.4621961 -188.53917865 179.48796884 -188.3515625 184.0078125 C-187.57495417 188.40859302 -185.05617353 191.14364308 -181.6875 193.875 C-178.20647239 195.33217435 -175.74471902 195.40121989 -172 195 C-167.89442341 193.18590802 -165.40382986 190.77744692 -163 187 C-161.89134583 182.93493469 -161.71041492 180.77730733 -163.1875 176.8125 C-165.68557263 172.93618041 -167.57135173 170.47621609 -172 169 C-177.70005331 168.46225912 -180.60727556 169.30611808 -185 173 Z M158.75 174.25 C156.57662583 177.66530227 156.070938 179.95653401 156 184 C157.56368911 188.19727077 159.57895245 191.11349113 163 194 C166.61930698 195.20643566 169.19231005 195.32268559 173 195 C177.33729795 192.74794145 180.13397371 190.5613976 182 186 C182.53635899 181.17276908 182.52017901 179.02109214 180.3125 174.6875 C176.92464315 170.75026096 174.71134186 169.18335806 169.5 168.625 C164.54079001 169.15634393 162.22765844 170.77234156 158.75 174.25 Z M-145 175 C-143.68 177.97 -142.36 180.94 -141 184 C-140.46875 186.85546875 -140.46875 186.85546875 -140.5 189.1875 C-140.4896875 189.96480469 -140.479375 190.74210938 -140.46875 191.54296875 C-141.22690514 195.04943625 -142.46277858 197.50907824 -145 200 C-148.41868125 202.147919 -152.02140845 203.81839555 -155.6875 205.5 C-166.48141416 210.23146069 -166.48141416 210.23146069 -176 217 C-177.23624943 220.71109635 -177.09191239 224.10904213 -177 228 C-177.03902013 229.4389947 -177.08510564 230.87780818 -177.13671875 232.31640625 C-177.40240957 241.73345496 -176.8742595 250.96023315 -175.75 260.3125 C-175.64075195 261.25311279 -175.53150391 262.19372559 -175.41894531 263.1628418 C-174.32477736 271.47176942 -172.21043235 278.71087869 -170 287 C-152.51 287 -135.02 287 -117 287 C-117 250.04 -117 213.08 -117 175 C-126.24 175 -135.48 175 -145 175 Z M-39 175 C-39 185.23 -39 195.46 -39 206 C-31.20899567 206.0420504 -23.41840732 206.08210867 -15.627388 206.10350037 C-11.99853105 206.11401971 -8.36976899 206.12805496 -4.7409668 206.15087891 C-1.23963429 206.17276092 2.26160674 206.18460067 5.7630024 206.18975449 C7.73533778 206.1951966 9.70763685 206.21078449 11.67991638 206.22659302 C20.98951453 206.22774519 29.46357516 206.13429929 37 200 C39.79154263 197.20845737 40.89285133 195.36832356 42 191.5625 C42 186.12283757 39.54255448 183.58792373 35.875 179.8125 C27.39148279 174.46419567 18.20426384 174.59138759 8.4609375 174.70703125 C7.08517931 174.71263993 5.70941505 174.716904 4.33364868 174.71989441 C0.74642835 174.73124333 -2.84041635 174.7606219 -6.42749023 174.79400635 C-10.10134715 174.82492454 -13.77526772 174.83861124 -17.44921875 174.85351562 C-24.63314215 174.88390447 -31.81603966 174.94264727 -39 175 Z M-39 257 C-39 266.9 -39 276.8 -39 287 C-19.2 287.495 -19.2 287.495 1 288 C1.33 305.82 1.66 323.64 2 342 C-45.19 342.33 -92.38 342.66 -141 343 C-139.68 344.98 -138.36 346.96 -137 349 C-136.49339844 349.78246094 -135.98679687 350.56492187 -135.46484375 351.37109375 C-132.40363221 355.5388002 -132.40363221 355.5388002 -127.76953125 357.390625 C-124.77683859 357.14935365 -121.94317275 356.60201261 -119 356 C-116.59847427 355.59625918 -114.19399451 355.21581984 -111.78808594 354.83911133 C-110.12811531 354.57644764 -108.46976622 354.30326539 -106.81347656 354.01831055 C-99.57020583 352.79936128 -93.48436504 351.87358588 -87 356 C-83.97743228 359.25449742 -83.29679684 362.24177429 -82.5 366.5625 C-82.31183716 367.52422119 -82.31183716 367.52422119 -82.11987305 368.50537109 C-81.39306875 372.33761195 -80.84985467 376.15780783 -80.42578125 380.03515625 C-80.27109375 381.3034729 -80.27109375 381.3034729 -80.11328125 382.59741211 C-79.91665382 384.24975286 -79.74997582 385.90600514 -79.6171875 387.56469727 C-79.21623397 390.82416108 -78.85365852 393.13817581 -76.49414062 395.52026367 C-71.15328734 399.09697147 -64.94419878 401.08151588 -58.875 403.0625 C-57.83255127 403.40611572 -56.79010254 403.74973145 -55.71606445 404.10375977 C-18.1804783 416.04162256 21.94654257 414.40214794 58.8125 400.9375 C59.45251953 400.70442139 60.09253906 400.47134277 60.75195312 400.23120117 C64.93800409 398.62122453 68.51338968 396.82770707 72 394 C73.22443283 390.75769246 73.22443283 390.75769246 73.57421875 387.0390625 C73.66959427 386.37087494 73.76496979 385.70268738 73.86323547 385.01425171 C74.16311512 382.8870314 74.4272222 380.7573964 74.6875 378.625 C74.96398508 376.50101506 75.24818892 374.37856651 75.54389954 372.25717163 C75.81021376 370.3280135 76.05357786 368.39572809 76.2956543 366.46337891 C77.21254113 361.95490173 78.55120065 358.31297441 82 355.1875 C90.27173946 350.2761547 103.43132711 354.43993933 112.46289062 355.98339844 C118.22438608 357.13986941 118.22438608 357.13986941 124 357 C126.49614643 354.96703975 126.49614643 354.96703975 128.6875 352.25 C129.45449219 351.36828125 130.22148437 350.4865625 131.01171875 349.578125 C132.69266141 347.39851369 133.828021 345.4609272 135 343 C133.71119934 342.98786972 133.71119934 342.98786972 132.3963623 342.97549438 C124.27541717 342.89735936 116.15463356 342.81001236 108.0338974 342.71247292 C103.85954574 342.66265489 99.68521762 342.61632429 95.51074219 342.578125 C91.4776209 342.54108819 87.4447038 342.49467987 83.41175842 342.44193649 C81.87772729 342.42348981 80.34365255 342.40834646 78.80955505 342.39665604 C57.29125706 342.22689637 57.29125706 342.22689637 49.47265625 334.48828125 C40.28503936 323.71094947 38.55562533 307.39488587 35.67407227 293.96240234 C32.77369926 280.84463179 28.84168399 266.76964246 17 259 C11.25392552 256.44450284 5.63896495 256.74483 -0.5234375 256.8046875 C-1.62475006 256.8075174 -2.72606262 256.81034729 -3.86074829 256.81326294 C-7.36561108 256.82442522 -10.87021492 256.84952289 -14.375 256.875 C-16.75650672 256.88503489 -19.13801745 256.89415985 -21.51953125 256.90234375 C-27.34653332 256.92264689 -33.17297802 256.96180393 -39 257 Z M-118 374 C-120.88481099 377.40259758 -122.89253943 380.48665595 -123 385 C-122.04784243 389.56852528 -120.74810279 392.35164425 -117.1875 395.4375 C-113.21047113 397.38702396 -110.39696629 398.66427554 -105.984375 397.44140625 C-101.09415526 395.40381469 -98.59618531 392.90584474 -96.55859375 388.015625 C-95.3418744 383.62522509 -96.62420774 380.79855855 -98.5 376.8125 C-103.90356569 370.7334886 -111.13071582 369.41529676 -118 374 Z M95 374 C91.76159069 377.73662613 90 381.01896515 90 386 C91.08001258 389.89710834 92.61597738 392.92157898 95.83984375 395.43359375 C99.07984509 397.23083058 101.39531998 398 105.125 398 C109.17653784 396.59076945 112.83693205 394.88701841 115.1484375 391.13671875 C117.11761198 386.19571674 116.61129732 381.43521979 114.5625 376.625 C108.90909129 370.83370327 101.89735524 369.41216643 95 374 Z " fill="#000000" transform="translate(243,2)"/>
</svg>
